<svg id="visual" viewBox="0 0 960 540" width="960" height="540" xmlns="http://www.w3.org/2000/svg" xmlns:xlink="http://www.w3.org/1999/xlink" version="1.1"><rect x="0" y="0" width="960" height="540" fill="#2B2730"></rect><path d="M572 0L552.5 18C533 36 494 72 478.2 108C462.3 144 469.7 180 479.2 216C488.7 252 500.3 288 510.5 324C520.7 360 529.3 396 521.3 432C513.3 468 488.7 504 476.3 522L464 540L0 540L0 522C0 504 0 468 0 432C0 396 0 360 0 324C0 288 0 252 0 216C0 180 0 144 0 108C0 72 0 36 0 18L0 0Z" fill="#6554AF" stroke-linecap="round" stroke-linejoin="miter"></path></svg>